<mxfile host="app.diagrams.net" agent="Mozilla/5.0 (X11; Linux x86_64; rv:144.0) Gecko/20100101 Firefox/144.0" version="28.2.8">
  <diagram name="Page-1" id="KrV62NsMxbxOYL2rbyKl">
    <mxGraphModel dx="345" dy="437" grid="1" gridSize="10" guides="1" tooltips="1" connect="1" arrows="1" fold="1" page="1" pageScale="1" pageWidth="827" pageHeight="1169" math="1" shadow="0">
      <root>
        <mxCell id="0" />
        <mxCell id="1" parent="0" />
        <mxCell id="1jG_-rnrckpNKKyYzb5j-1" value="" style="pointerEvents=1;verticalLabelPosition=bottom;shadow=0;dashed=0;align=center;html=1;verticalAlign=top;shape=mxgraph.electrical.inductors.inductor_3;" vertex="1" parent="1">
          <mxGeometry x="200" y="182" width="100" height="8" as="geometry" />
        </mxCell>
        <mxCell id="1jG_-rnrckpNKKyYzb5j-2" value="" style="pointerEvents=1;verticalLabelPosition=bottom;shadow=0;dashed=0;align=center;html=1;verticalAlign=top;shape=mxgraph.electrical.inductors.variable_inductor;" vertex="1" parent="1">
          <mxGeometry x="200" y="210" width="100" height="60" as="geometry" />
        </mxCell>
        <mxCell id="1jG_-rnrckpNKKyYzb5j-3" value="" style="pointerEvents=1;verticalLabelPosition=bottom;shadow=0;dashed=0;align=center;html=1;verticalAlign=top;shape=mxgraph.electrical.inductors.inductor_3;" vertex="1" parent="1">
          <mxGeometry x="200" y="282" width="100" height="8" as="geometry" />
        </mxCell>
        <mxCell id="1jG_-rnrckpNKKyYzb5j-7" value="" style="pointerEvents=1;verticalLabelPosition=bottom;shadow=0;dashed=0;align=center;html=1;verticalAlign=top;shape=mxgraph.electrical.inductors.inductor_3;" vertex="1" parent="1">
          <mxGeometry x="200" y="332" width="100" height="8" as="geometry" />
        </mxCell>
        <mxCell id="1jG_-rnrckpNKKyYzb5j-9" value="" style="edgeStyle=none;orthogonalLoop=1;jettySize=auto;html=1;rounded=0;endArrow=none;endFill=0;" edge="1" parent="1">
          <mxGeometry width="80" relative="1" as="geometry">
            <mxPoint x="220" y="327" as="sourcePoint" />
            <mxPoint x="280" y="327" as="targetPoint" />
            <Array as="points" />
          </mxGeometry>
        </mxCell>
        <mxCell id="1jG_-rnrckpNKKyYzb5j-10" value="" style="edgeStyle=none;orthogonalLoop=1;jettySize=auto;html=1;rounded=0;endArrow=none;endFill=0;" edge="1" parent="1">
          <mxGeometry width="80" relative="1" as="geometry">
            <mxPoint x="220" y="323" as="sourcePoint" />
            <mxPoint x="280" y="323" as="targetPoint" />
            <Array as="points" />
          </mxGeometry>
        </mxCell>
        <mxCell id="1jG_-rnrckpNKKyYzb5j-11" value="" style="pointerEvents=1;verticalLabelPosition=bottom;shadow=0;dashed=0;align=center;html=1;verticalAlign=top;shape=mxgraph.electrical.inductors.inductor_3;" vertex="1" parent="1">
          <mxGeometry x="200" y="382" width="100" height="8" as="geometry" />
        </mxCell>
        <mxCell id="1jG_-rnrckpNKKyYzb5j-12" value="" style="edgeStyle=none;orthogonalLoop=1;jettySize=auto;html=1;rounded=0;endArrow=none;endFill=0;dashed=1;dashPattern=8 8;" edge="1" parent="1">
          <mxGeometry width="80" relative="1" as="geometry">
            <mxPoint x="220" y="377" as="sourcePoint" />
            <mxPoint x="280" y="377" as="targetPoint" />
            <Array as="points" />
          </mxGeometry>
        </mxCell>
        <mxCell id="1jG_-rnrckpNKKyYzb5j-13" value="" style="edgeStyle=none;orthogonalLoop=1;jettySize=auto;html=1;rounded=0;endArrow=none;endFill=0;dashed=1;dashPattern=8 8;" edge="1" parent="1">
          <mxGeometry width="80" relative="1" as="geometry">
            <mxPoint x="220" y="373" as="sourcePoint" />
            <mxPoint x="280" y="373" as="targetPoint" />
            <Array as="points" />
          </mxGeometry>
        </mxCell>
        <mxCell id="1jG_-rnrckpNKKyYzb5j-14" value="Fixe" style="text;html=1;whiteSpace=wrap;strokeColor=none;fillColor=none;align=right;verticalAlign=middle;rounded=0;" vertex="1" parent="1">
          <mxGeometry x="90" y="180" width="100" height="20" as="geometry" />
        </mxCell>
        <mxCell id="1jG_-rnrckpNKKyYzb5j-15" value="&lt;div align=&quot;right&quot;&gt;Noyau de ferrite&lt;/div&gt;" style="text;html=1;whiteSpace=wrap;strokeColor=none;fillColor=none;align=right;verticalAlign=middle;rounded=0;" vertex="1" parent="1">
          <mxGeometry x="90" y="380" width="100" height="20" as="geometry" />
        </mxCell>
        <mxCell id="1jG_-rnrckpNKKyYzb5j-16" value="&lt;div align=&quot;right&quot;&gt;Noyau de fer&lt;/div&gt;" style="text;html=1;whiteSpace=wrap;strokeColor=none;fillColor=none;align=right;verticalAlign=middle;rounded=0;" vertex="1" parent="1">
          <mxGeometry x="90" y="330" width="100" height="20" as="geometry" />
        </mxCell>
        <mxCell id="1jG_-rnrckpNKKyYzb5j-17" value="&lt;div align=&quot;right&quot;&gt;Noyau d&#39;air&lt;/div&gt;" style="text;html=1;whiteSpace=wrap;strokeColor=none;fillColor=none;align=right;verticalAlign=middle;rounded=0;" vertex="1" parent="1">
          <mxGeometry x="90" y="280" width="100" height="20" as="geometry" />
        </mxCell>
        <mxCell id="1jG_-rnrckpNKKyYzb5j-18" value="Variable" style="text;html=1;whiteSpace=wrap;strokeColor=none;fillColor=none;align=right;verticalAlign=middle;rounded=0;" vertex="1" parent="1">
          <mxGeometry x="90" y="230" width="100" height="20" as="geometry" />
        </mxCell>
      </root>
    </mxGraphModel>
  </diagram>
</mxfile>
